<svg width="19" height="23" viewBox="0 0 19 23" fill="none" xmlns="http://www.w3.org/2000/svg">
<path d="M18.2991 22.3534L17.4066 5.62367C17.3966 5.39678 17.205 5.2203 16.9831 5.2203H13.5849V4.19171C13.5849 1.94292 11.7547 0.117676 9.51107 0.117676C7.26239 0.117676 5.43723 1.94797 5.43723 4.19171V5.2203H2.03901C1.81212 5.2203 1.62557 5.39678 1.61549 5.62367L0.723077 22.3534C0.718035 22.4694 0.758371 22.5854 0.839041 22.6711C0.919711 22.7568 1.03063 22.8022 1.14659 22.8022H17.8755C17.9915 22.8022 18.1024 22.7518 18.1831 22.6711C18.2638 22.5854 18.3091 22.4694 18.2991 22.3534ZM6.28931 4.18667C6.28931 2.4068 7.73633 0.964753 9.51107 0.964753C11.2858 0.964753 12.7328 2.41184 12.7328 4.18667V5.21526H6.28931V4.18667ZM1.59532 21.9501L2.44236 6.07242H5.43723V8.8103C5.43723 9.04728 5.62882 9.23888 5.86579 9.23888C6.10276 9.23888 6.29435 9.04728 6.29435 8.8103V6.07242H12.7429V8.8103C12.7429 9.04728 12.9345 9.23888 13.1715 9.23888C13.4084 9.23888 13.6 9.04728 13.6 8.8103V6.07242H16.5949L17.4268 21.9501H1.59532Z" fill="#0A0A0A"/>
</svg>
