<svg width="1087" height="1492" viewBox="0 0 1087 1492" fill="none" xmlns="http://www.w3.org/2000/svg">
<g clip-path="url(#clip0_49_48)">
<mask id="mask0_49_48" style="mask-type:luminance" maskUnits="userSpaceOnUse" x="0" y="0" width="1087" height="1492">
<path d="M1087 0H0V1492H1087V0Z" fill="white"/>
</mask>
<g mask="url(#mask0_49_48)">
<mask id="mask1_49_48" style="mask-type:luminance" maskUnits="userSpaceOnUse" x="0" y="0" width="1087" height="1492">
<path d="M1087 0H0V1492H1087V0Z" fill="white"/>
</mask>
<g mask="url(#mask1_49_48)">
<path d="M929.83 1030.3H243.898C219.849 1030.3 198.354 1014.18 191.65 991.084L78.3741 601.695C78.2145 601.216 78.3209 600.738 78.6401 600.312C78.9594 599.939 79.385 599.673 79.9171 599.673H1017.62C1053.48 599.673 1079.6 633.781 1070.13 668.42L982.397 990.179C975.853 1013.8 954.305 1030.3 929.83 1030.3ZM81.9389 602.813L194.629 990.233C200.961 1012 221.232 1027.21 243.898 1027.21H929.83C952.921 1027.21 973.246 1011.68 979.311 989.434L1067.05 667.675C1075.93 635.058 1051.41 602.866 1017.57 602.866H81.9389V602.813Z" fill="#0A0A0A"/>
<path d="M439.643 1029.18L315.3 601.695C315.034 600.844 315.513 599.992 316.364 599.78C317.216 599.514 318.067 599.992 318.28 600.844L442.675 1028.28C442.941 1029.13 442.463 1029.98 441.611 1030.19C440.813 1030.46 439.909 1030.03 439.643 1029.18Z" fill="#0A0A0A"/>
<path d="M539.722 1461.35H474.704C453.954 1461.35 435.757 1448.1 429.426 1428.36L301.199 1029.24C300.933 1028.44 301.412 1027.53 302.21 1027.27C303.061 1027 303.912 1027.48 304.178 1028.28L432.405 1427.4C438.311 1445.87 455.337 1458.26 474.704 1458.26H539.722C540.573 1458.26 541.265 1458.96 541.265 1459.81C541.265 1460.66 540.573 1461.35 539.722 1461.35Z" fill="#0A0A0A"/>
<path d="M916.314 1461.35H849.274C828.524 1461.35 810.327 1448.1 803.996 1428.36L675.769 1029.24C675.503 1028.44 675.982 1027.53 676.78 1027.27C677.631 1027 678.483 1027.48 678.749 1028.28L806.975 1427.4C812.881 1445.87 829.907 1458.26 849.274 1458.26H916.314C917.165 1458.26 917.857 1458.96 917.857 1459.81C917.91 1460.66 917.165 1461.35 916.314 1461.35Z" fill="#0A0A0A"/>
<path d="M979.683 1459.81C979.683 1477.31 965.477 1491.52 947.973 1491.52C930.468 1491.52 916.262 1477.31 916.262 1459.81C916.262 1442.3 930.468 1428.09 947.973 1428.09C965.477 1428.09 979.683 1442.3 979.683 1459.81Z" fill="#8C8A8A"/>
<path d="M1023.42 1461.35H956.38C935.629 1461.35 917.433 1448.1 911.101 1428.36L782.875 1029.24C782.609 1028.44 783.088 1027.53 783.886 1027.27C784.737 1027 785.588 1027.48 785.854 1028.28L914.081 1427.4C919.987 1445.87 937.013 1458.26 956.38 1458.26H1023.42C1024.27 1458.26 1024.96 1458.96 1024.96 1459.81C1025.02 1460.66 1024.32 1461.35 1023.42 1461.35Z" fill="#0A0A0A"/>
<path d="M1086.79 1459.81C1086.79 1477.31 1072.58 1491.52 1055.08 1491.52C1037.57 1491.52 1023.37 1477.31 1023.37 1459.81C1023.37 1442.3 1037.57 1428.09 1055.08 1428.09C1072.58 1428.09 1086.79 1442.3 1086.79 1459.81Z" fill="#0A0A0A"/>
<path d="M603.144 1459.81C603.144 1477.31 588.938 1491.52 571.433 1491.52C553.929 1491.52 539.723 1477.31 539.723 1459.81C539.723 1442.3 553.929 1428.09 571.433 1428.09C588.938 1428.09 603.144 1442.3 603.144 1459.81Z" fill="#8C8A8A"/>
<path d="M652.784 1461.35H587.766C567.016 1461.35 548.82 1448.1 542.488 1428.36L414.261 1029.24C413.995 1028.44 414.474 1027.53 415.272 1027.27C416.124 1027 416.975 1027.48 417.241 1028.28L545.468 1427.4C551.373 1445.87 568.399 1458.26 587.766 1458.26H652.784C653.636 1458.26 654.327 1458.96 654.327 1459.81C654.38 1460.66 653.636 1461.35 652.784 1461.35Z" fill="#0A0A0A"/>
<path d="M716.261 1459.81C716.261 1477.31 702.055 1491.52 684.551 1491.52C667.046 1491.52 652.84 1477.31 652.84 1459.81C652.84 1442.3 667.046 1428.09 684.551 1428.09C702.055 1428.09 716.261 1442.3 716.261 1459.81Z" fill="#0A0A0A"/>
<path d="M872.313 705.348V916.058C872.313 928.243 862.417 938.14 850.233 938.14C838.049 938.14 828.152 928.243 828.152 916.058V705.348C828.152 693.163 838.049 683.266 850.233 683.266C862.47 683.319 872.313 693.163 872.313 705.348Z" fill="#8C8A8A"/>
<path d="M764.942 705.348V916.058C764.942 928.243 755.046 938.14 742.862 938.14C730.678 938.14 720.781 928.243 720.781 916.058V705.348C720.781 693.163 730.678 683.266 742.862 683.266C755.099 683.319 764.942 693.163 764.942 705.348Z" fill="#8C8A8A"/>
<path d="M657.575 705.348V916.058C657.575 928.243 647.679 938.14 635.495 938.14C623.31 938.14 613.414 928.243 613.414 916.058V705.348C613.414 693.163 623.31 683.266 635.495 683.266C647.679 683.319 657.575 693.163 657.575 705.348Z" fill="#8C8A8A"/>
<path d="M550.203 705.348V916.058C550.203 928.243 540.307 938.14 528.123 938.14C515.939 938.14 506.043 928.243 506.043 916.058V705.348C506.043 693.163 515.939 683.266 528.123 683.266C540.307 683.319 550.203 693.163 550.203 705.348Z" fill="#8C8A8A"/>
<path d="M316.789 602.813H79.8628C79.2244 602.813 78.6923 602.44 78.4263 601.855L3.08639 428.551C-7.44842 404.341 10.2692 377.204 36.7658 377.204H202.29C217.294 377.204 230.596 386.143 236.289 400.031L318.279 600.631C318.492 601.11 318.439 601.642 318.12 602.068C317.8 602.547 317.322 602.813 316.789 602.813ZM80.8738 599.673H314.448L233.362 401.201C228.201 388.537 215.964 380.343 202.29 380.343H36.7658C12.5571 380.343 -3.67079 405.139 5.95951 427.327L80.8738 599.673Z" fill="#0A0A0A"/>
<path d="M528.123 533.906V601.216H351V533.906C351 529.649 354.458 526.19 358.715 526.19H520.461C524.718 526.19 528.123 529.649 528.123 533.906Z" fill="#0A0A0A"/>
<path d="M529.719 602.813H349.457V533.906C349.457 528.798 353.607 524.647 358.715 524.647H520.461C525.569 524.647 529.719 528.798 529.719 533.906V602.813ZM352.543 599.673H526.58V533.906C526.58 530.501 523.813 527.787 520.461 527.787H358.715C355.31 527.787 352.596 530.554 352.596 533.906V599.673H352.543Z" fill="#0A0A0A"/>
<path d="M922.115 527.787V601.216H558.824V527.787C558.824 518.156 566.645 510.334 576.276 510.334H904.664C914.294 510.334 922.115 518.156 922.115 527.787Z" fill="#0A0A0A"/>
<path d="M923.709 602.813H557.332V527.787C557.332 517.305 565.845 508.791 576.327 508.791H904.714C915.196 508.791 923.709 517.305 923.709 527.787V602.813ZM560.418 599.673H920.57V527.787C920.57 519.06 913.44 511.93 904.714 511.93H576.327C567.601 511.93 560.471 519.06 560.471 527.787V599.673H560.418Z" fill="#0A0A0A"/>
<path d="M764.944 484.847V601.216H488.75V484.847C488.75 478.195 494.124 472.875 500.721 472.875H752.972C759.57 472.875 764.944 478.249 764.944 484.847Z" fill="#8C8A8A"/>
<path d="M766.539 602.813H487.207V484.847C487.207 477.344 493.273 471.278 500.775 471.278H753.025C760.474 471.278 766.593 477.344 766.593 484.847V602.813H766.539ZM490.293 599.673H763.4V484.847C763.4 479.1 758.718 474.418 752.972 474.418H500.721C494.975 474.418 490.293 479.1 490.293 484.847V599.673Z" fill="#0A0A0A"/>
<path d="M174.996 383.589C174.996 388.697 170.846 392.794 165.791 392.794H43.8961C38.7883 392.794 34.6914 388.644 34.6914 383.589C34.6914 378.48 38.8415 374.383 43.8961 374.383H165.791C170.846 374.33 174.996 378.48 174.996 383.589Z" fill="#0A0A0A"/>
<path d="M165.736 394.337H43.8946C37.9355 394.337 33.0938 389.495 33.0938 383.535C33.0938 377.576 37.9355 372.734 43.8946 372.734H165.79C171.749 372.734 176.59 377.576 176.59 383.535C176.59 389.495 171.695 394.337 165.736 394.337ZM43.8946 375.926C39.6913 375.926 36.2329 379.385 36.2329 383.589C36.2329 387.792 39.6913 391.251 43.8946 391.251H165.79C169.993 391.251 173.451 387.792 173.451 383.589C173.451 379.385 169.993 375.926 165.79 375.926H43.8946Z" fill="#0A0A0A"/>
<path d="M702.154 36.1138L637.094 120.662L721.633 185.73L786.699 101.181L702.154 36.1138Z" fill="#0A0A0A"/>
<path d="M694.084 0.000488281L587.406 0.532625L587.938 107.218L694.616 106.686L694.084 0.000488281Z" fill="#8C8A8A"/>
</g>
</g>
</g>
<defs>
<clipPath id="clip0_49_48">
<rect width="1087" height="1492" fill="white"/>
</clipPath>
</defs>
</svg>
