<svg width="30" height="30" viewBox="0 0 30 30" fill="none" xmlns="http://www.w3.org/2000/svg">
<path d="M11.9025 16.9375C11.7847 16.9375 9.31461 16.9382 8.17537 16.9371C7.58887 16.9367 7.37962 16.726 7.37962 16.1357C7.37887 14.6196 7.37849 13.1035 7.37962 11.5873C7.37999 11.0046 7.60124 10.7822 8.18024 10.7818C9.31949 10.7811 11.7761 10.7815 11.9025 10.7815C11.9025 10.6776 11.9021 8.48872 11.9025 7.48073C11.9032 5.99048 12.1691 4.56398 12.9262 3.25785C13.7014 1.92098 14.8294 1.00523 16.275 0.475731C17.2009 0.136356 18.162 0.000981392 19.1445 0.000231393C20.3737 -0.000518607 21.603 0.000606381 22.8326 0.00285638C23.361 0.00360638 23.5954 0.237231 23.5965 0.769356C23.5987 2.19548 23.5987 3.6216 23.5965 5.04735C23.5957 5.5851 23.3711 5.8011 22.8307 5.8071C21.8231 5.81798 20.8147 5.81123 19.8082 5.85173C18.7916 5.85173 18.2569 6.34823 18.2569 7.40048C18.2325 8.51347 18.2467 9.6276 18.2467 10.7811C18.342 10.7811 21.2351 10.7807 22.5874 10.7811C23.2016 10.7811 23.4116 10.9922 23.4116 11.6098C23.4116 13.1177 23.4112 14.626 23.4101 16.1338C23.4097 16.7425 23.2125 16.9367 22.5945 16.9371C21.2422 16.9378 18.3604 16.9375 18.2344 16.9375V29.1418C18.2344 29.7925 18.0296 29.9998 17.3876 29.9998C15.8224 29.9998 14.2567 30.0002 12.6915 29.9998C12.1241 29.9998 11.9029 29.7793 11.9029 29.212C11.9025 25.2373 11.9025 17.077 11.9025 16.9375Z" fill="#FDFDFD"/>
</svg>
