<svg width="41" height="34" viewBox="0 0 41 34" fill="none" xmlns="http://www.w3.org/2000/svg">
<path d="M28.6561 21.6452C28.5021 21.646 28.3528 21.592 28.2349 21.4929L23.3324 17.5225C23.2553 17.4586 23.1933 17.3785 23.1507 17.2878C23.108 17.1972 23.086 17.0983 23.0859 16.9982V6.01911C23.0859 5.84084 23.1568 5.66986 23.2828 5.5438C23.4089 5.41774 23.5798 5.34692 23.7581 5.34692C23.9364 5.34692 24.1074 5.41774 24.2334 5.5438C24.3595 5.66986 24.4303 5.84084 24.4303 6.01911V16.68L29.0818 20.4487C29.1925 20.5372 29.2723 20.6585 29.31 20.7951C29.3476 20.9317 29.3411 21.0767 29.2914 21.2094C29.2417 21.3421 29.1514 21.4557 29.0332 21.534C28.9151 21.6122 28.7753 21.6512 28.6337 21.6452H28.6561Z" fill="#0A0A0A"/>
<path d="M17.0091 24.3385H9.51203C9.33375 24.3385 9.16278 24.2677 9.03672 24.1416C8.91066 24.0156 8.83984 23.8446 8.83984 23.6663C8.83984 23.4881 8.91066 23.3171 9.03672 23.191C9.16278 23.065 9.33375 22.9941 9.51203 22.9941H17.0091C17.1874 22.9941 17.3584 23.065 17.4844 23.191C17.6105 23.3171 17.6813 23.4881 17.6813 23.6663C17.6813 23.8446 17.6105 24.0156 17.4844 24.1416C17.3584 24.2677 17.1874 24.3385 17.0091 24.3385Z" fill="#0A0A0A"/>
<path d="M13.9666 17.1237H1.35187C1.1736 17.1237 1.00263 17.0529 0.876566 16.9268C0.750507 16.8007 0.679688 16.6298 0.679688 16.4515C0.679688 16.2732 0.750507 16.1022 0.876566 15.9762C1.00263 15.8501 1.1736 15.7793 1.35187 15.7793H13.9666C14.1448 15.7793 14.3158 15.8501 14.4419 15.9762C14.5679 16.1022 14.6387 16.2732 14.6387 16.4515C14.6387 16.6298 14.5679 16.8007 14.4419 16.9268C14.3158 17.0529 14.1448 17.1237 13.9666 17.1237Z" fill="#0A0A0A"/>
<path d="M9.16514 9.82802H4.6839C4.50563 9.82802 4.33466 9.7572 4.2086 9.63114C4.08254 9.50508 4.01172 9.3341 4.01172 9.15583C4.01172 8.97755 4.08254 8.80658 4.2086 8.68052C4.33466 8.55446 4.50563 8.48364 4.6839 8.48364H9.16514C9.34342 8.48364 9.51439 8.55446 9.64045 8.68052C9.76651 8.80658 9.83733 8.97755 9.83733 9.15583C9.83733 9.3341 9.76651 9.50508 9.64045 9.63114C9.51439 9.7572 9.34342 9.82802 9.16514 9.82802Z" fill="#0A0A0A"/>
<path d="M23.7581 29.7698C23.5798 29.7698 23.4089 29.699 23.2828 29.5729C23.1568 29.4469 23.0859 29.2759 23.0859 29.0976V28.9632C23.0859 28.7849 23.1568 28.614 23.2828 28.4879C23.4089 28.3618 23.5798 28.291 23.7581 28.291C23.9364 28.291 24.1074 28.3618 24.2334 28.4879C24.3595 28.614 24.4303 28.7849 24.4303 28.9632V29.0976C24.4303 29.2759 24.3595 29.4469 24.2334 29.5729C24.1074 29.699 23.9364 29.7698 23.7581 29.7698Z" fill="#0A0A0A"/>
<path d="M36.2793 17.6703H36.1448C35.9666 17.6703 35.7956 17.5995 35.6695 17.4734C35.5435 17.3474 35.4727 17.1764 35.4727 16.9981C35.4727 16.8198 35.5435 16.6489 35.6695 16.5228C35.7956 16.3967 35.9666 16.3259 36.1448 16.3259H36.2793C36.4576 16.3259 36.6285 16.3967 36.7546 16.5228C36.8806 16.6489 36.9515 16.8198 36.9515 16.9981C36.9515 17.1764 36.8806 17.3474 36.7546 17.4734C36.6285 17.5995 36.4576 17.6703 36.2793 17.6703Z" fill="#0A0A0A"/>
<path d="M8.08097 19.8482C7.91914 19.8486 7.76268 19.7902 7.64068 19.6838C7.51869 19.5775 7.43946 19.4305 7.41774 19.2701C7.31439 18.5173 7.26497 17.758 7.26986 16.9981C7.26986 16.8198 7.34068 16.6489 7.46674 16.5228C7.5928 16.3967 7.76377 16.3259 7.94205 16.3259C8.12032 16.3259 8.2913 16.3967 8.41735 16.5228C8.54341 16.6489 8.61423 16.8198 8.61423 16.9981C8.61431 17.6952 8.66222 18.3914 8.75763 19.0819C8.76953 19.1706 8.76358 19.2608 8.74014 19.3472C8.71671 19.4336 8.67625 19.5144 8.62115 19.585C8.56605 19.6555 8.49742 19.7143 8.41928 19.758C8.34114 19.8017 8.25507 19.8293 8.16611 19.8392L8.08097 19.8482Z" fill="#0A0A0A"/>
<path d="M23.7572 33.4936C21.5402 33.5014 19.3447 33.0585 17.3041 32.1919C15.2634 31.3252 13.4202 30.0529 11.8864 28.4521C11.7841 28.3207 11.7343 28.1559 11.7466 27.9897C11.7589 27.8236 11.8325 27.668 11.953 27.553C12.0736 27.438 12.2325 27.3719 12.399 27.3675C12.5656 27.3631 12.7278 27.4206 12.8543 27.529C14.2633 28.9983 15.9565 30.1656 17.8308 30.9599C19.7052 31.7541 21.7215 32.1588 23.7572 32.1492C26.4576 32.1484 29.1088 31.4259 31.4362 30.0565C33.7637 28.687 35.6829 26.7204 36.995 24.3602C38.3072 21.9999 38.9647 19.3319 38.8995 16.6322C38.8343 13.9326 38.0488 11.2994 36.6242 9.00527C35.1996 6.71115 33.1877 4.83948 30.7968 3.58399C28.406 2.32851 25.723 1.73484 23.0257 1.86445C20.3283 1.99407 17.7147 2.84224 15.4552 4.32118C13.1957 5.80012 11.3726 7.85607 10.1745 10.2762C10.0949 10.4361 9.95503 10.5577 9.78569 10.6145C9.61635 10.6712 9.43142 10.6583 9.27156 10.5787C9.11171 10.4991 8.99004 10.3592 8.93331 10.1899C8.87658 10.0205 8.88945 9.83558 8.96908 9.67573C10.2735 7.03962 12.2589 4.80011 14.7196 3.18907C17.1803 1.57802 20.027 0.654015 22.9647 0.512709C25.9025 0.371403 28.8247 1.01794 31.4287 2.38537C34.0327 3.75281 36.2238 5.79144 37.7752 8.29017C39.3267 10.7889 40.182 13.6569 40.2526 16.5973C40.3233 19.5376 39.6067 22.4434 38.177 25.0138C36.7474 27.5841 34.6567 29.7256 32.1214 31.2166C29.5861 32.7075 26.6984 33.4936 23.7572 33.4936Z" fill="#0A0A0A"/>
<path d="M5.71978 24.3385H4.4964C4.31813 24.3385 4.14716 24.2677 4.0211 24.1416C3.89504 24.0156 3.82422 23.8446 3.82422 23.6663C3.82422 23.4881 3.89504 23.3171 4.0211 23.191C4.14716 23.065 4.31813 22.9941 4.4964 22.9941H5.71978C5.89806 22.9941 6.06903 23.065 6.19509 23.191C6.32115 23.3171 6.39197 23.4881 6.39197 23.6663C6.39197 23.8446 6.32115 24.0156 6.19509 24.1416C6.06903 24.2677 5.89806 24.3385 5.71978 24.3385Z" fill="#0A0A0A"/>
<path d="M8.69612 12.5975C8.58293 12.5962 8.47189 12.5665 8.37315 12.5112C8.27442 12.4558 8.19114 12.3766 8.13095 12.2807C8.07076 12.1849 8.03557 12.0755 8.02862 11.9625C8.02167 11.8495 8.04317 11.7366 8.09115 11.6341L9.02325 9.68472C9.0612 9.60498 9.1145 9.5335 9.18008 9.47436C9.24566 9.41521 9.32225 9.36956 9.40548 9.34002C9.4887 9.31047 9.57693 9.29761 9.66513 9.30216C9.75332 9.30672 9.83976 9.3286 9.9195 9.36655C9.99924 9.40451 10.0707 9.4578 10.1299 9.52339C10.189 9.58897 10.2347 9.66556 10.2642 9.74878C10.2937 9.83201 10.3066 9.92024 10.3021 10.0084C10.2975 10.0966 10.2756 10.1831 10.2377 10.2628L9.30557 12.2166C9.25001 12.3309 9.16338 12.4273 9.05559 12.4947C8.9478 12.562 8.82322 12.5977 8.69612 12.5975Z" fill="#0A0A0A"/>
</svg>
