<svg width="60" height="34" viewBox="0 0 60 34" fill="none" xmlns="http://www.w3.org/2000/svg">
<path d="M39.082 28.1689H22.3068C21.9669 28.1689 21.6914 28.4445 21.6914 28.7843C21.6914 29.1241 21.9669 29.3996 22.3068 29.3996H39.082C39.4219 29.3996 39.6974 29.1241 39.6974 28.7843C39.6974 28.4445 39.4219 28.1689 39.082 28.1689Z" fill="#0A0A0A"/>
<path d="M48.21 14.1058L43.5033 3.46397C43.4048 3.24097 43.1842 3.09741 42.9405 3.09741H36.3497C36.0099 3.09741 35.7344 3.37292 35.7344 3.71276V14.3546C35.7344 14.6944 36.0099 14.9699 36.3497 14.9699H47.6472C48.0913 14.9699 48.3899 14.5124 48.21 14.1058ZM36.9651 13.7391V4.328H42.5396L46.7022 13.7391H36.9651Z" fill="#0A0A0A"/>
<path d="M58.9224 28.1677H57.7532V19.6271C57.7532 17.5432 56.0607 15.8735 53.9993 15.8735C53.005 15.8735 52.1 15.2849 51.6944 14.3753L45.8917 1.25121H47.6925C48.0324 1.25121 48.3079 0.975703 48.3079 0.635859C48.3079 0.296016 48.0324 0.0205078 47.6925 0.0205078C3.18039 0.0210937 6.13434 0.0210934 5.31004 0.0210934C3.62008 0.0210934 2.24547 1.39875 2.24547 3.09199V28.1677H1.07629C0.736445 28.1677 0.460938 28.4432 0.460938 28.783C0.460938 29.1229 0.736445 29.3984 1.07629 29.3984C1.80742 29.3985 -1.57238 29.3979 8.22719 29.3995C8.56703 29.3995 8.84254 29.124 8.84254 28.7842C8.84254 28.4443 8.56703 28.1688 8.22719 28.1688C8.16519 28.1688 3.15848 28.1675 3.47629 28.1677V3.09199C3.47629 2.07726 4.29906 1.2518 5.31016 1.2518H44.5463L50.5694 14.8747C51.1734 16.2289 52.5198 17.1043 53.9993 17.1043C55.3796 17.1043 56.5225 18.2232 56.5225 19.6271V28.1677C56.3283 28.1678 53.0099 28.1689 53.1625 28.1688C52.8227 28.1688 52.5471 28.4443 52.5471 28.7842C52.5471 29.124 52.8227 29.3995 53.1625 29.3995C53.2267 29.3995 59.2908 29.3982 58.9224 29.3984C59.2622 29.3984 59.5377 29.1229 59.5377 28.783C59.5379 28.4433 59.2622 28.1677 58.9224 28.1677Z" fill="#0A0A0A"/>
<path d="M15.2693 23.5898C12.4047 23.5898 10.0742 25.9201 10.0742 28.7845C10.0742 31.6491 12.4047 33.9796 15.2693 33.9796C18.1338 33.9796 20.4639 31.6491 20.4639 28.7845C20.4639 25.9201 18.1337 23.5898 15.2693 23.5898ZM15.2693 32.7489C13.0832 32.7489 11.305 30.9707 11.305 28.7846C11.305 26.599 13.0832 24.8207 15.2693 24.8207C17.4549 24.8207 19.2332 26.5989 19.2332 28.7846C19.2331 30.9705 17.4549 32.7489 15.2693 32.7489Z" fill="#0A0A0A"/>
<path d="M46.1208 23.5898C43.2563 23.5898 40.9258 25.9201 40.9258 28.7845C40.9258 31.6491 43.2563 33.9796 46.1208 33.9796C48.9854 33.9796 51.3155 31.6491 51.3155 28.7845C51.3155 25.9201 48.9852 23.5898 46.1208 23.5898ZM46.1208 32.7489C43.9348 32.7489 42.1566 30.9707 42.1566 28.7846C42.1566 26.599 43.9348 24.8207 46.1208 24.8207C48.3065 24.8207 50.0848 26.5989 50.0848 28.7846C50.0847 30.9705 48.3065 32.7489 46.1208 32.7489Z" fill="#0A0A0A"/>
<path d="M37.4258 17.4244V18.6101C37.4258 18.95 37.7013 19.2255 38.0411 19.2255C38.381 19.2255 38.6565 18.95 38.6565 18.6101V17.4244C38.6565 17.0846 38.381 16.8091 38.0411 16.8091C37.7013 16.8091 37.4258 17.0846 37.4258 17.4244Z" fill="#0A0A0A"/>
</svg>
