<svg width="58" height="34" viewBox="0 0 58 34" fill="none" xmlns="http://www.w3.org/2000/svg">
<path d="M10.954 21.5774C11.2867 21.5774 11.5566 21.3076 11.5566 20.9748V3.14639C11.5566 2.29912 12.2459 1.60982 13.0932 1.60982H43.6466C44.4939 1.60982 45.1836 2.29912 45.1836 3.14639V9.04502C45.1836 9.37771 45.4531 9.64748 45.7861 9.64748C46.1192 9.64748 46.3886 9.37771 46.3886 9.04502V3.14639C46.3886 1.63455 45.1588 0.404785 43.6466 0.404785H13.0932C11.5813 0.404785 10.3516 1.63455 10.3516 3.14639V20.9748C10.3516 21.3076 10.6213 21.5774 10.954 21.5774Z" fill="#0A0A0A"/>
<path d="M57.6129 19.8087C55.0479 12.0795 55.2514 12.4549 54.8011 11.8902C54.2923 11.2496 53.515 10.8528 52.6605 10.8528H45.7862C45.4532 10.8528 45.1837 11.1225 45.1837 11.4554V22.7826H10.9541C10.6214 22.7826 10.3516 23.0524 10.3516 23.3852V28.4825C10.3516 29.4793 11.1624 30.29 12.1592 30.29H17.2023C17.535 30.29 17.8049 30.0202 17.8049 29.6874C17.8049 29.3546 17.5352 29.0848 17.2023 29.0848H12.1592C11.8271 29.0848 11.5566 28.8145 11.5566 28.4824V23.9876H45.7861C46.1192 23.9876 46.3886 23.7179 46.3886 23.385V20.3786H56.5148C56.6404 20.8215 56.7156 21.2717 56.7156 21.7222V28.4822C56.7156 28.8143 56.4455 29.0847 56.1132 29.0847H55.7336C55.4005 29.0847 55.131 29.3545 55.131 29.6873C55.131 30.0201 55.4005 30.2899 55.7336 30.2899H56.1132C57.11 30.2899 57.9207 29.479 57.9207 28.4824V21.7223C57.9207 21.0794 57.8177 20.4368 57.6129 19.8087ZM46.3893 19.1736V12.059H52.6593C53.0774 12.059 53.4646 12.2272 53.7468 12.5085C54.124 12.887 56.112 19.1112 56.1314 19.1736H46.3893Z" fill="#0A0A0A"/>
<path d="M44.3035 29.0847H28.6318C28.2991 29.0847 28.0293 29.3545 28.0293 29.6873C28.0293 30.0201 28.2991 30.2899 28.6318 30.2899H44.3035C44.6365 30.2899 44.9059 30.0201 44.9059 29.6873C44.9059 29.3545 44.6365 29.0847 44.3035 29.0847Z" fill="#0A0A0A"/>
<path d="M22.9141 25.7742C20.7611 25.7742 19.0098 27.5285 19.0098 29.6847C19.0098 31.841 20.7611 33.5953 22.9141 33.5953C25.0702 33.5953 26.8243 31.841 26.8243 29.6847C26.8243 27.5285 25.0704 25.7742 22.9141 25.7742ZM22.9141 32.3901C21.4257 32.3901 20.2148 31.1765 20.2148 29.6846C20.2148 28.1927 21.4257 26.9791 22.9141 26.9791C24.4057 26.9791 25.6193 28.1927 25.6193 29.6846C25.6193 31.1765 24.4058 32.3901 22.9141 32.3901Z" fill="#0A0A0A"/>
<path d="M50.0134 25.7742C47.8604 25.7742 46.1094 27.5285 46.1094 29.6847C46.1094 31.841 47.8605 33.5953 50.0134 33.5953C52.1698 33.5953 53.9239 31.841 53.9239 29.6847C53.9239 27.5285 52.1698 25.7742 50.0134 25.7742ZM50.0134 32.3901C48.5253 32.3901 47.3144 31.1765 47.3144 29.6846C47.3144 28.1927 48.5253 26.9791 50.0134 26.9791C51.5049 26.9791 52.7189 28.1927 52.7189 29.6846C52.7189 31.1765 51.5049 32.3901 50.0134 32.3901Z" fill="#0A0A0A"/>
<path d="M6.71234 3.06641H0.680703C0.348008 3.06641 0.078125 3.33617 0.078125 3.66887C0.078125 4.00156 0.347891 4.27144 0.680703 4.27144H6.71234C7.04504 4.27144 7.31492 4.00168 7.31492 3.66887C7.3148 3.33617 7.04504 3.06641 6.71234 3.06641Z" fill="#0A0A0A"/>
<path d="M6.71289 6.17285H2.56938C2.23668 6.17285 1.9668 6.44262 1.9668 6.77531C1.9668 7.10801 2.23656 7.37789 2.56938 7.37789H6.71289C7.04559 7.37789 7.31547 7.10813 7.31547 6.77531C7.31547 6.4425 7.04559 6.17285 6.71289 6.17285Z" fill="#0A0A0A"/>
<path d="M6.7125 9.2793H4.75687C4.42418 9.2793 4.1543 9.54906 4.1543 9.88187C4.1543 10.2147 4.42406 10.4843 4.75687 10.4843H6.7125C7.0452 10.4843 7.31508 10.2146 7.31508 9.88187C7.31508 9.54918 7.0452 9.2793 6.7125 9.2793Z" fill="#0A0A0A"/>
</svg>
