<svg width="30" height="30" viewBox="0 0 30 30" fill="none" xmlns="http://www.w3.org/2000/svg">
<g clip-path="url(#clip0_124_111)">
<path d="M23.7205 5.55103C23.319 5.55103 22.9922 5.8778 22.9922 6.27935C22.9922 6.68089 23.319 7.00767 23.7205 7.00767C24.1221 7.00767 24.4488 6.68095 24.4488 6.27935C24.4488 5.87774 24.1221 5.55103 23.7205 5.55103Z" fill="#FDFDFD"/>
<path d="M14.9998 8.54297C11.4395 8.54297 8.54297 11.4395 8.54297 14.9998C8.54297 18.56 11.4395 21.4566 14.9998 21.4566C18.5601 21.4566 21.4566 18.5601 21.4566 14.9998C21.4566 11.4396 18.5601 8.54297 14.9998 8.54297Z" fill="#FDFDFD"/>
<path d="M21.776 0H8.22404C3.6893 0 0 3.6893 0 8.2241V21.776C0 26.3108 3.6893 30 8.22404 30H21.776C26.3108 30 30 26.3107 30 21.776V8.2241C30 3.6893 26.3108 0 21.776 0ZM15 23.2284C10.4628 23.2284 6.77162 19.5372 6.77162 15C6.77162 10.4628 10.4629 6.77168 15 6.77168C19.5371 6.77168 23.2284 10.4629 23.2284 15C23.2284 19.5371 19.5371 23.2284 15 23.2284ZM23.7206 8.77945C22.3421 8.77945 21.2206 7.65797 21.2206 6.27949C21.2206 4.90102 22.3421 3.77947 23.7206 3.77947C25.099 3.77947 26.2205 4.90096 26.2205 6.27943C26.2205 7.65791 25.099 8.77945 23.7206 8.77945Z" fill="#FDFDFD"/>
</g>
<defs>
<clipPath id="clip0_124_111">
<rect width="30" height="30" fill="white"/>
</clipPath>
</defs>
</svg>
