<svg width="20" height="20" viewBox="0 0 20 20" fill="none" xmlns="http://www.w3.org/2000/svg">
<g clip-path="url(#clip0_129_293)">
<path d="M19.8183 7.3786C19.8183 7.3786 11.5341 0.755967 11.2221 0.479276C10.8609 0.159929 10.4305 0.000170591 10.0002 1.36218e-07C9.56954 -0.000170318 9.13901 0.159631 8.77842 0.479319C8.46636 0.755967 0.181705 7.3786 0.181705 7.3786C0.0757245 7.46383 0 7.58191 0 7.72134V18.181C0 19.1842 0.815413 20 1.8182 20H18.1818C19.1846 20 20 19.1842 20 18.181V7.72134C20 7.58191 19.9243 7.46383 19.8183 7.3786ZM10.6192 14.2821C10.5096 14.3794 10.281 14.5429 9.98579 14.5429C9.77003 14.5429 9.56187 14.4554 9.36657 14.2821C7.60385 12.7205 2.69766 8.88947 1.19007 7.71695C2.93412 6.32826 9.02434 1.47639 9.38123 1.16011C9.62272 0.946961 10.1802 0.771521 10.6192 1.16054C10.9761 1.47635 17.0651 6.32749 18.8095 7.71661C17.2978 8.89045 12.3713 12.7307 10.6192 14.2821Z" fill="#FDFDFD"/>
</g>
<defs>
<clipPath id="clip0_129_293">
<rect width="20" height="20" fill="white"/>
</clipPath>
</defs>
</svg>
