<svg width="23" height="23" viewBox="0 0 23 23" fill="none" xmlns="http://www.w3.org/2000/svg">
<g clip-path="url(#clip0_75_193)">
<path d="M22.4673 21.7674L15.7734 15.0735C17.1637 13.5297 18.0183 11.4943 18.0183 9.25811C18.0182 4.45639 14.1117 0.549805 9.30991 0.549805C4.50815 0.549805 0.601562 4.45639 0.601562 9.25815C0.601562 14.0599 4.50815 17.9665 9.30991 17.9665C11.5461 17.9665 13.5815 17.112 15.1253 15.7216L21.8192 22.4155C21.9087 22.505 22.026 22.5498 22.1433 22.5498C22.2605 22.5498 22.3778 22.505 22.4673 22.4155C22.6463 22.2365 22.6463 21.9464 22.4673 21.7674ZM9.30991 17.0498C5.01394 17.0498 1.51826 13.5546 1.51826 9.25815C1.51826 4.96175 5.01394 1.46646 9.30991 1.46646C13.6059 1.46646 17.1016 4.96171 17.1016 9.25815C17.1016 13.5546 13.6059 17.0498 9.30991 17.0498Z" fill="#0A0A0A"/>
</g>
<defs>
<clipPath id="clip0_75_193">
<rect width="22" height="22" fill="white" transform="translate(0.601562 0.549805)"/>
</clipPath>
</defs>
</svg>
