<svg width="30" height="25" viewBox="0 0 30 25" fill="none" xmlns="http://www.w3.org/2000/svg">
<path d="M30 2.95962C28.8844 3.46154 27.6956 3.79423 26.4563 3.95577C27.7313 3.175 28.7044 1.94808 29.1619 0.469231C27.9731 1.19615 26.6606 1.70962 25.2619 1.99615C24.1331 0.763462 22.5244 0 20.7694 0C17.3644 0 14.6231 2.83462 14.6231 6.30962C14.6231 6.80962 14.6644 7.29038 14.7656 7.74808C9.6525 7.49231 5.12812 4.97885 2.08875 1.15C-0.0847501 5.16654 2.34375 8.45962 3.97875 9.58077C2.99063 9.56154 2.02125 9.26731 1.2 8.80385C1.2 11.935 3.33188 14.4846 6.1275 15.0712C5.51625 15.2792 4.18087 15.3923 3.35062 15.1712C4.1475 17.6692 6.40875 19.5058 9.0975 19.5654C7.005 21.2442 3.92137 22.6127 0 22.1692C2.72437 23.9712 5.95312 25 9.435 25C20.7525 25 26.94 15.3846 26.94 7.05C26.94 6.77115 26.9306 6.50192 26.9175 6.23462C28.1381 5.34615 29.1637 4.23654 30 2.95962Z" fill="#FDFDFD"/>
</svg>
