<svg width="274" height="36" viewBox="0 0 274 36" fill="none" xmlns="http://www.w3.org/2000/svg">
<g clip-path="url(#clip0_75_176)">
<path fill-rule="evenodd" clip-rule="evenodd" d="M155.105 23.694C158.243 31.1957 163.556 34.2515 169.42 33.7422C173.745 33.2937 177.866 31.6758 181.34 29.0622C174.458 35.3527 164.974 38.4497 156.33 33.7147C152.421 31.5811 150.315 28.6355 147.397 26.0202C144.217 23.1847 141.12 21.2301 139.041 21.12C135.944 20.9686 134.237 23.8041 133.467 27.7133C133.004 30.2224 132.865 32.7806 133.054 35.3251C132.049 25.3044 134.32 20.9273 137.335 17.8164C140.245 14.7448 142.193 10.888 142.937 6.7221C143.653 2.86799 141.863 0.81705 145.896 0.913403C148.154 0.913403 150.631 0.913403 150.631 0.913403C151.154 0.913403 152.434 9.65398 152.875 12.985C153.193 16.6301 153.942 20.2247 155.105 23.694Z" fill="#ffffff"/>
<path fill-rule="evenodd" clip-rule="evenodd" d="M155.102 23.694C156.045 26.086 157.448 28.2699 159.231 30.1221C155.033 26.9011 150.89 21.8633 147.035 18.0917C145.997 17.0335 144.689 16.2792 143.253 15.9104C141.816 15.5417 140.307 15.5725 138.887 15.9995C140.918 13.2551 142.293 10.0812 142.906 6.7221C143.622 2.86799 141.832 0.81705 145.865 0.913403C148.123 0.913403 150.6 0.913403 150.6 0.913403C151.124 0.913403 152.404 9.65398 152.844 12.985C153.163 16.6301 153.911 20.2247 155.074 23.694H155.102Z" fill="#ffffff"/>
</g>
<path d="M27.2474 26.181V26.622H22.2389L18.1439 10.431C17.9234 9.54901 16.6319 9.54901 16.4114 10.431L12.9464 24.102C12.6944 25.1415 13.4819 26.181 14.5529 26.181V26.622H9.5444L4.0949 5.13902C3.7169 3.72152 2.4254 2.71352 0.976406 2.71352V2.27252H6.3629L12.0014 24.5115C12.0329 24.5745 12.0644 24.606 12.0959 24.6375C12.1589 24.669 12.1904 24.7005 12.2534 24.7005C12.3794 24.7005 12.5054 24.606 12.5369 24.5115L17.1044 6.43051L16.7894 5.13902C16.4114 3.72152 15.1514 2.71352 13.6709 2.71352V2.27252H19.0574L24.6959 24.5115C24.7274 24.5745 24.7589 24.606 24.7904 24.6375C24.8534 24.669 24.9164 24.7005 24.9794 24.7005C25.1054 24.7005 25.1999 24.606 25.2314 24.5115L29.6729 6.99751C30.2399 4.82401 28.6019 2.71352 26.3654 2.71352V2.27252H31.1849L25.6409 24.102C25.3889 25.1415 26.1764 26.181 27.2474 26.181ZM61.5865 25.6455C62.059 25.992 62.626 26.181 63.2245 26.181V26.622H54.6566V26.181C56.2631 26.181 57.3971 24.543 56.8301 23.031L54.1526 15.912C53.8061 14.967 52.6091 14.6835 51.8846 15.408L43.7891 23.5035C43.5056 23.787 43.3481 24.1965 43.3481 24.5745C43.3481 25.047 43.5686 25.5195 43.9781 25.803C44.1356 25.929 44.3246 26.0235 44.5136 26.0865C44.7026 26.1495 44.8916 26.181 45.1121 26.181V26.622H39.1271V26.181C40.4186 26.181 41.5526 25.362 41.9936 24.165L48.8921 5.39101C48.9551 5.17052 49.0181 4.95001 49.0181 4.72952C49.0181 3.65852 48.1361 2.71352 47.0021 2.71352V2.27252H52.3571L60.5155 24.291C60.736 24.858 61.114 25.3305 61.5865 25.6455ZM52.3256 14.3685C52.8926 13.8015 53.0501 12.951 52.7981 12.195L49.8056 4.19402L43.4426 21.5505C43.1906 22.1805 43.9781 22.6845 44.4506 22.212L52.3256 14.3685ZM93.4613 21.9915V26.622H73.6478V26.181C75.1913 26.181 76.4513 24.921 76.4513 23.3775V5.51701C76.4513 3.97352 75.1913 2.71352 73.6478 2.71352V2.27252H81.7433V2.71352C80.1998 2.71352 78.9713 3.97352 78.9713 5.51701V24.1335C78.9713 25.2675 79.8848 26.181 81.0188 26.181H85.5548C88.7363 26.181 91.6658 24.606 93.4613 21.9915ZM109.297 12.9825C109.297 13.581 109.99 13.8645 110.399 13.4865L120.857 4.32002C121.424 3.72152 120.983 2.71352 120.164 2.71352V2.27252H126.244V2.71352C125.929 2.71352 125.614 2.83952 125.362 3.06002L112.1 13.266C111.596 13.644 111.88 14.463 112.51 14.463H114.62L127.189 25.8345C127.441 26.055 127.724 26.1495 128.071 26.1495V26.622H121.96V26.1495C122.495 26.1495 122.873 25.7085 122.873 25.2675C122.873 25.047 122.779 24.795 122.558 24.606L112.289 15.3135C111.943 15.03 111.533 14.8725 111.092 14.8725C110.116 14.8725 109.297 15.66 109.297 16.6365V23.409C109.297 24.921 110.557 26.181 112.069 26.181V26.622H103.973V26.1495C105.517 26.1495 106.777 24.921 106.777 23.3775V5.48551C106.777 3.97352 105.548 2.71352 104.005 2.71352V2.27252H112.1V2.71352C111.313 2.71352 110.62 3.02852 110.116 3.53252C109.612 4.03652 109.297 4.72952 109.297 5.48551V12.9825ZM164.574 7.21801C164.574 13.9905 179.442 11.6595 179.442 20.2905C179.442 24.2595 176.229 27.063 171.126 27.063C166.023 27.063 162.842 24.1965 162.842 24.1965L161.645 17.8965L162.086 17.802C164.196 23.283 167.378 26.685 171.473 26.685C174.812 26.685 177.237 24.48 177.237 21.456C177.237 14.274 162.369 16.6995 162.369 8.28901C162.369 4.57202 165.866 1.80002 170.748 1.80002C173.142 1.80002 175.914 2.93402 177.804 3.91052L179.033 10.2105L178.592 10.305C176.45 5.48551 173.898 2.20952 170.15 2.20952C166.968 2.20952 164.574 4.47752 164.574 7.21801ZM209.847 8.66701C209.532 5.35951 206.792 2.80802 203.484 2.71352H201.657V23.3775C201.657 24.921 202.886 26.181 204.429 26.181V26.622H196.334V26.181C197.09 26.181 197.783 25.866 198.287 25.362C198.791 24.858 199.106 24.1335 199.106 23.3775V2.71352H197.279C193.971 2.80802 191.231 5.35951 190.916 8.66701H190.475L190.632 6.87151L191.042 2.27252H209.721L210.131 6.87151L210.288 8.66701H209.847ZM226.627 26.181H234.156C237.526 26.181 240.361 23.598 240.676 20.2275H241.117L240.55 26.622H221.304V26.1495C222.091 26.1495 222.784 25.866 223.288 25.362C223.792 24.858 224.107 24.1335 224.107 23.3775V5.51701C224.107 3.97352 222.847 2.71352 221.304 2.71352V2.27252H240.109L240.676 8.66701H240.235C239.92 5.29652 237.085 2.71352 233.715 2.71352H226.627V12.1635C226.627 13.2975 227.541 14.211 228.675 14.211H231.226C233.463 14.211 235.258 12.384 235.258 10.1475H235.731V18.7155H235.258C235.258 16.479 233.463 14.652 231.226 14.652H228.675C227.541 14.652 226.627 15.5655 226.627 16.6995V26.181ZM272.08 7.91101C272.143 9.10801 271.796 10.305 271.135 11.3445C269.843 13.4235 267.512 14.652 265.055 14.652H260.488C259.354 14.6835 258.44 15.597 258.44 16.6995V23.3775C258.44 24.921 259.7 26.181 261.244 26.181V26.622H253.148V26.181C254.692 26.181 255.92 24.921 255.92 23.3775V5.51701C255.92 3.97352 254.692 2.71352 253.148 2.71352V2.27252H265.969C269.119 2.39852 271.828 4.76102 272.08 7.91101ZM268.646 11.565C269.213 10.6515 269.56 9.54901 269.56 8.35201C269.56 8.16301 269.56 7.94251 269.528 7.72201C269.213 4.82401 266.599 2.71352 263.669 2.71352H258.44V12.195C258.44 13.2975 259.385 14.2425 260.488 14.2425H263.512C265.559 14.2425 267.575 13.2975 268.646 11.565Z" fill="#ffffff"/>
<defs>
<clipPath id="clip0_75_176">
<rect width="48.5343" height="35.1" fill="white" transform="translate(132.805 0.899902)"/>
</clipPath>
</defs>
</svg>
